<mxfile modified="2020-11-19T10:02:46.160Z" host="app.diagrams.net" agent="5.0 (Windows NT 10.0; Win64; x64) AppleWebKit/537.36 (KHTML, like Gecko) Chrome/86.0.4240.198 Safari/537.36" etag="Q4ZW3GTirkkF7z48bdz3" version="13.10.0" type="github" pages="2">
  <diagram id="UJlyGFXVCkptwmDJzh81" name="Page-1">
    <mxGraphModel dx="782" dy="437" grid="1" gridSize="10" guides="1" tooltips="1" connect="1" arrows="1" fold="1" page="1" pageScale="1" pageWidth="827" pageHeight="1169" background="#ffffff" math="0" shadow="0">
      <root>
        <object label="" id="0">
          <mxCell />
        </object>
        <mxCell id="1" parent="0" />
        <object label="" placeholders="1" instruction="edit data of the lower shape within the group" id="5cVvOpawmlWqnZKX2nME-7">
          <mxCell style="group;resizable=0;" parent="1" vertex="1" connectable="0">
            <mxGeometry x="90" y="30" width="160" height="170" as="geometry" />
          </mxCell>
        </object>
        <object label="&lt;div style=&quot;color: rgb(255 , 255 , 255) ; white-space: normal&quot;&gt;&lt;span style=&quot;font-size: 14px&quot;&gt;&lt;b&gt;%name%&lt;/b&gt;&lt;/span&gt;&lt;/div&gt;&lt;div style=&quot;color: rgb(255 , 255 , 255) ; white-space: normal&quot;&gt;&lt;font style=&quot;font-size: 8px&quot;&gt;[Person]&lt;/font&gt;&lt;/div&gt;&lt;div style=&quot;color: rgb(255 , 255 , 255) ; white-space: normal ; font-size: 8px&quot;&gt;&lt;span style=&quot;font-size: x-small&quot;&gt;&lt;br&gt;&lt;/span&gt;&lt;/div&gt;&lt;div style=&quot;color: rgb(255 , 255 , 255) ; white-space: normal&quot;&gt;&lt;font size=&quot;1&quot;&gt;%description%&lt;/font&gt;&lt;/div&gt;" name="Actor Name" description="Description" placeholders="1" id="5cVvOpawmlWqnZKX2nME-5">
          <mxCell style="rounded=1;whiteSpace=wrap;html=1;strokeColor=#00315C;fillColor=#004179;fontColor=#000000;arcSize=31;" parent="5cVvOpawmlWqnZKX2nME-7" vertex="1">
            <mxGeometry y="70" width="160" height="100" as="geometry" />
          </mxCell>
        </object>
        <mxCell id="5cVvOpawmlWqnZKX2nME-6" value="" style="ellipse;whiteSpace=wrap;html=1;aspect=fixed;strokeColor=#00315C;fillColor=#004179;fontColor=#000000;" parent="5cVvOpawmlWqnZKX2nME-7" vertex="1">
          <mxGeometry x="40" width="80" height="80" as="geometry" />
        </mxCell>
        <object label="&lt;font style=&quot;font-size: 10px&quot;&gt;&lt;b&gt;%name%&lt;/b&gt;&lt;br style=&quot;font-size: 10px&quot;&gt;[Software System]&lt;/font&gt;" placeholders="1" name="Software System Name" id="5cVvOpawmlWqnZKX2nME-8">
          <mxCell style="rounded=0;whiteSpace=wrap;html=1;strokeColor=#828282;fillColor=none;fontColor=#000000;align=left;labelPosition=center;verticalLabelPosition=middle;verticalAlign=bottom;dashed=1;strokeWidth=1;perimeterSpacing=0;spacing=2;spacingTop=0;fontSize=10;dashPattern=8 8;" parent="1" vertex="1">
            <mxGeometry x="320" y="40" width="200" height="370" as="geometry" />
          </mxCell>
        </object>
        <object label="&lt;div style=&quot;color: rgb(255 , 255 , 255) ; white-space: normal&quot;&gt;&lt;span style=&quot;font-size: 14px&quot;&gt;&lt;b&gt;%name%&lt;/b&gt;&lt;/span&gt;&lt;/div&gt;&lt;div style=&quot;color: rgb(255 , 255 , 255) ; font-size: 12px ; white-space: normal&quot;&gt;&lt;font style=&quot;font-size: 8px&quot;&gt;[Container: %technology%]&lt;/font&gt;&lt;/div&gt;&lt;div style=&quot;color: rgb(255 , 255 , 255) ; white-space: normal ; font-size: 8px&quot;&gt;&lt;font style=&quot;line-height: 9.6px&quot;&gt;&lt;br&gt;&lt;/font&gt;&lt;/div&gt;&lt;div style=&quot;color: rgb(255 , 255 , 255) ; white-space: normal&quot;&gt;%description%&lt;/div&gt;" placeholders="1" name="Container Name" description="Description" technology="e.g. PostgreSQL" id="5cVvOpawmlWqnZKX2nME-9">
          <mxCell style="shape=cylinder;whiteSpace=wrap;html=1;boundedLbl=1;backgroundOutline=1;strokeColor=#2F6FA6;strokeWidth=1;fillColor=#3B8CD2;fontSize=9;fontColor=#000000;align=center;resizable=0;" parent="1" vertex="1">
            <mxGeometry x="320" y="560" width="180" height="120" as="geometry" />
          </mxCell>
        </object>
        <object label="&lt;b&gt;%name%&lt;/b&gt;&lt;br style=&quot;font-size: 10px&quot;&gt;[%technology%]" placeholders="1" name="Dependency Operation Name" technology="JDBC" id="5cVvOpawmlWqnZKX2nME-10">
          <mxCell style="endArrow=block;html=1;fontSize=10;fontColor=#404040;strokeWidth=1;endFill=1;dashed=1;dashPattern=8 8;strokeColor=#828282;elbow=vertical;" parent="1" edge="1">
            <mxGeometry width="50" height="50" relative="1" as="geometry">
              <mxPoint x="320" y="480" as="sourcePoint" />
              <mxPoint x="520" y="480" as="targetPoint" />
            </mxGeometry>
          </mxCell>
        </object>
        <object label="&lt;span style=&quot;font-size: 10px&quot;&gt;&lt;b&gt;%name%&lt;/b&gt;&lt;br&gt;[%technology%]&lt;br&gt;&lt;/span&gt;" placeholders="1" name="Data Flow Item Name" technology="HTTP" id="5cVvOpawmlWqnZKX2nME-12">
          <mxCell style="endArrow=block;html=1;fontSize=10;fontColor=#404040;strokeWidth=1;endFill=1;strokeColor=#828282;elbow=vertical;" parent="1" edge="1">
            <mxGeometry width="50" height="50" relative="1" as="geometry">
              <mxPoint x="320" y="519.5" as="sourcePoint" />
              <mxPoint x="520" y="519.5" as="targetPoint" />
            </mxGeometry>
          </mxCell>
        </object>
        <object label="%name%&lt;br style=&quot;font-size: 10px&quot;&gt;&lt;font size=&quot;1&quot;&gt;&lt;span style=&quot;font-weight: 400&quot;&gt;%description%&lt;/span&gt;&lt;/font&gt;" placeholders="1" name="Diagram Name" description="Description" id="5cVvOpawmlWqnZKX2nME-13">
          <mxCell style="text;html=1;resizable=0;points=[];autosize=1;align=left;verticalAlign=top;spacingTop=-4;fontSize=14;fontColor=#404040;fontStyle=1" parent="1" vertex="1">
            <mxGeometry x="80" y="880" width="110" height="40" as="geometry" />
          </mxCell>
        </object>
        <object label="&lt;div&gt;&lt;span style=&quot;font-size: 14px&quot;&gt;&lt;b&gt;%name%&lt;/b&gt;&lt;/span&gt;&lt;/div&gt;&lt;div&gt;&lt;span style=&quot;font-size: 8px&quot;&gt;[Software System&lt;/span&gt;&lt;span style=&quot;font-size: 8px&quot;&gt;]&lt;/span&gt;&lt;/div&gt;&lt;div&gt;&lt;span style=&quot;font-size: 8px&quot;&gt;&lt;br&gt;&lt;/span&gt;&lt;/div&gt;&lt;div&gt;&lt;font size=&quot;1&quot;&gt;%description%&lt;/font&gt;&lt;/div&gt;" placeholders="1" name="External System Name" description="Description of Software System" id="dcKwWc84L9W_I8fYm-3h-1">
          <mxCell style="rounded=0;whiteSpace=wrap;html=1;fillColor=#999999;fontColor=#FFFFFF;strokeColor=#828282;resizable=0;" parent="1" vertex="1">
            <mxGeometry x="80" y="240" width="180" height="120" as="geometry" />
          </mxCell>
        </object>
        <object label="&lt;div&gt;&lt;span style=&quot;font-size: 14px&quot;&gt;&lt;b&gt;%name%&lt;/b&gt;&lt;/span&gt;&lt;/div&gt;&lt;div&gt;&lt;span style=&quot;font-size: 8px&quot;&gt;[Software System]&lt;/span&gt;&lt;/div&gt;&lt;div&gt;&lt;span style=&quot;font-size: 8px&quot;&gt;&lt;br&gt;&lt;/span&gt;&lt;/div&gt;&lt;div&gt;&lt;font size=&quot;1&quot;&gt;%description%&lt;/font&gt;&lt;/div&gt;" placeholders="1" name="Software System Name" description="Description" id="dcKwWc84L9W_I8fYm-3h-2">
          <mxCell style="rounded=0;whiteSpace=wrap;html=1;fillColor=#0067BA;fontColor=#FFFFFF;strokeColor=#005DA8;resizable=0;" parent="1" vertex="1">
            <mxGeometry x="80" y="400" width="180" height="120" as="geometry" />
          </mxCell>
        </object>
        <object label="&lt;div&gt;&lt;span style=&quot;font-size: 14px&quot;&gt;&lt;b&gt;%name%&lt;/b&gt;&lt;/span&gt;&lt;/div&gt;&lt;div&gt;&lt;span style=&quot;font-size: 8px&quot;&gt;[Container: %technology%]&lt;/span&gt;&lt;/div&gt;&lt;div&gt;&lt;span style=&quot;font-size: 8px&quot;&gt;&lt;br&gt;&lt;/span&gt;&lt;/div&gt;&lt;div&gt;&lt;font size=&quot;1&quot;&gt;%description%&lt;/font&gt;&lt;/div&gt;" placeholders="1" name="Container Name" technology="e.g. Python, Flask" description="Description" id="dcKwWc84L9W_I8fYm-3h-3">
          <mxCell style="rounded=0;whiteSpace=wrap;html=1;fillColor=#3B8CD2;fontColor=#FFFFFF;strokeColor=#2F6FA6;resizable=0;" parent="1" vertex="1">
            <mxGeometry x="80" y="560" width="180" height="120" as="geometry" />
          </mxCell>
        </object>
        <object label="&lt;div&gt;&lt;span style=&quot;font-size: 14px&quot;&gt;&lt;b&gt;%name%&lt;/b&gt;&lt;/span&gt;&lt;/div&gt;&lt;div&gt;&lt;span style=&quot;font-size: 8px&quot;&gt;[Component: %technology%]&lt;/span&gt;&lt;/div&gt;&lt;div&gt;&lt;span style=&quot;font-size: 8px&quot;&gt;&lt;br&gt;&lt;/span&gt;&lt;/div&gt;&lt;div&gt;&lt;font size=&quot;1&quot;&gt;%description%&lt;/font&gt;&lt;/div&gt;" placeholders="1" name="Component Name" technology="e.g. Spring Bean" description="Description" id="dcKwWc84L9W_I8fYm-3h-5">
          <mxCell style="rounded=0;whiteSpace=wrap;html=1;fillColor=#85baf0;fontColor=#000000;strokeColor=#6992BD;resizable=0;" parent="1" vertex="1">
            <mxGeometry x="80" y="720" width="180" height="120" as="geometry" />
          </mxCell>
        </object>
        <object label="&lt;font style=&quot;font-size: 10px&quot;&gt;&lt;b&gt;%name%&lt;/b&gt;&lt;br style=&quot;font-size: 10px&quot;&gt;[Container]&lt;/font&gt;" placeholders="1" name="Container Name" id="dcKwWc84L9W_I8fYm-3h-12">
          <mxCell style="rounded=0;whiteSpace=wrap;html=1;strokeColor=#828282;fillColor=none;fontColor=#000000;align=left;labelPosition=center;verticalLabelPosition=middle;verticalAlign=bottom;dashed=1;strokeWidth=1;perimeterSpacing=0;spacing=2;spacingTop=0;fontSize=10;dashPattern=8 8;container=0;" parent="1" vertex="1">
            <mxGeometry x="560" y="40" width="200" height="370" as="geometry">
              <mxRectangle x="560" y="40" width="110" height="30" as="alternateBounds" />
            </mxGeometry>
          </mxCell>
        </object>
        <object label="&lt;font style=&quot;font-size: 10px&quot;&gt;&lt;b&gt;%name%&lt;/b&gt;&lt;br style=&quot;font-size: 10px&quot;&gt;[Domain]&lt;/font&gt;" placeholders="1" name="Domain Name" id="dcKwWc84L9W_I8fYm-3h-13">
          <mxCell style="rounded=0;whiteSpace=wrap;html=1;strokeColor=#828282;fillColor=none;fontColor=#000000;align=left;labelPosition=center;verticalLabelPosition=middle;verticalAlign=bottom;dashed=1;strokeWidth=1;perimeterSpacing=0;spacing=2;spacingTop=0;fontSize=10;dashPattern=8 8;" parent="1" vertex="1">
            <mxGeometry x="560" y="480" width="200" height="370" as="geometry" />
          </mxCell>
        </object>
        <object label="" placeholders="1" instruction="edit data of the lower shape within the group" id="_E3jYcBlB1CncjWAGzBo-1">
          <mxCell style="group;resizable=0;" parent="1" vertex="1" connectable="0">
            <mxGeometry x="330" y="720" width="160" height="170" as="geometry" />
          </mxCell>
        </object>
        <object label="&lt;div style=&quot;color: rgb(255 , 255 , 255) ; white-space: normal&quot;&gt;&lt;span style=&quot;font-size: 14px&quot;&gt;&lt;b&gt;%name%&lt;/b&gt;&lt;/span&gt;&lt;/div&gt;&lt;div style=&quot;color: rgb(255 , 255 , 255) ; white-space: normal&quot;&gt;&lt;font style=&quot;font-size: 8px&quot;&gt;[Person]&lt;/font&gt;&lt;/div&gt;&lt;div style=&quot;color: rgb(255 , 255 , 255) ; white-space: normal ; font-size: 8px&quot;&gt;&lt;span style=&quot;font-size: x-small&quot;&gt;&lt;br&gt;&lt;/span&gt;&lt;/div&gt;&lt;div style=&quot;color: rgb(255 , 255 , 255) ; white-space: normal&quot;&gt;&lt;font size=&quot;1&quot;&gt;%description%&lt;/font&gt;&lt;/div&gt;" name="External Actor Name" description="Description" placeholders="1" id="_E3jYcBlB1CncjWAGzBo-2">
          <mxCell style="rounded=1;whiteSpace=wrap;html=1;strokeColor=#828282;fillColor=#999999;fontColor=#000000;arcSize=31;" parent="_E3jYcBlB1CncjWAGzBo-1" vertex="1">
            <mxGeometry y="70" width="160" height="100" as="geometry" />
          </mxCell>
        </object>
        <mxCell id="_E3jYcBlB1CncjWAGzBo-3" value="" style="ellipse;whiteSpace=wrap;html=1;aspect=fixed;strokeColor=#828282;fillColor=#999999;fontColor=#000000;" parent="_E3jYcBlB1CncjWAGzBo-1" vertex="1">
          <mxGeometry x="40" width="80" height="80" as="geometry" />
        </mxCell>
      </root>
    </mxGraphModel>
  </diagram>
  <diagram id="d8lMD864T7z2UD87KcEd" name="Page-2">
    <mxGraphModel dx="782" dy="437" grid="1" gridSize="10" guides="1" tooltips="1" connect="1" arrows="1" fold="1" page="1" pageScale="1" pageWidth="827" pageHeight="1169" math="0" shadow="0">
      <root>
        <mxCell id="e1K1VD6MmtJ3X1J_XKfh-0" />
        <mxCell id="e1K1VD6MmtJ3X1J_XKfh-1" parent="e1K1VD6MmtJ3X1J_XKfh-0" />
        <object label="" placeholders="1" instruction="edit data of the lower shape within the group" id="3fenQZD7WvJW-FzGtks1-0">
          <mxCell style="group;resizable=0;" parent="e1K1VD6MmtJ3X1J_XKfh-1" vertex="1" connectable="0">
            <mxGeometry x="480" y="50" width="160" height="170" as="geometry" />
          </mxCell>
        </object>
        <object label="&lt;div style=&quot;color: rgb(255 , 255 , 255) ; white-space: normal&quot;&gt;&lt;span style=&quot;font-size: 14px&quot;&gt;&lt;b&gt;Fan&lt;/b&gt;&lt;/span&gt;&lt;/div&gt;&lt;div style=&quot;color: rgb(255 , 255 , 255) ; white-space: normal&quot;&gt;&lt;span style=&quot;font-size: 8px&quot;&gt;[Person]&lt;/span&gt;&lt;br&gt;&lt;/div&gt;&lt;div style=&quot;color: rgb(255 , 255 , 255) ; white-space: normal ; font-size: 8px&quot;&gt;&lt;span style=&quot;font-size: x-small&quot;&gt;&lt;br&gt;&lt;/span&gt;&lt;/div&gt;&lt;div style=&quot;color: rgb(255 , 255 , 255) ; white-space: normal&quot;&gt;&lt;font size=&quot;1&quot;&gt;A fan of ice hockey&lt;/font&gt;&lt;/div&gt;" name="Actor Name" description="Description" placeholders="1" id="3fenQZD7WvJW-FzGtks1-1">
          <mxCell style="rounded=1;whiteSpace=wrap;html=1;strokeColor=#00315C;fillColor=#004179;fontColor=#000000;arcSize=31;" parent="3fenQZD7WvJW-FzGtks1-0" vertex="1">
            <mxGeometry y="70" width="160" height="100" as="geometry" />
          </mxCell>
        </object>
        <mxCell id="3fenQZD7WvJW-FzGtks1-2" value="" style="ellipse;whiteSpace=wrap;html=1;aspect=fixed;strokeColor=#00315C;fillColor=#004179;fontColor=#000000;" parent="3fenQZD7WvJW-FzGtks1-0" vertex="1">
          <mxGeometry x="40" width="80" height="80" as="geometry" />
        </mxCell>
        <object label="" placeholders="1" instruction="edit data of the lower shape within the group" id="3fenQZD7WvJW-FzGtks1-3">
          <mxCell style="group;resizable=0;" parent="e1K1VD6MmtJ3X1J_XKfh-1" vertex="1" connectable="0">
            <mxGeometry x="60" y="50" width="160" height="170" as="geometry" />
          </mxCell>
        </object>
        <object label="&lt;div style=&quot;color: rgb(255 , 255 , 255) ; white-space: normal&quot;&gt;&lt;span style=&quot;font-size: 14px&quot;&gt;&lt;b&gt;Manager&lt;/b&gt;&lt;/span&gt;&lt;/div&gt;&lt;div style=&quot;color: rgb(255 , 255 , 255) ; white-space: normal&quot;&gt;&lt;span style=&quot;font-size: 8px&quot;&gt;[Person]&lt;/span&gt;&lt;br&gt;&lt;/div&gt;&lt;div style=&quot;color: rgb(255 , 255 , 255) ; white-space: normal ; font-size: 8px&quot;&gt;&lt;span style=&quot;font-size: x-small&quot;&gt;&lt;br&gt;&lt;/span&gt;&lt;/div&gt;&lt;div style=&quot;color: rgb(255 , 255 , 255) ; white-space: normal&quot;&gt;&lt;font size=&quot;1&quot;&gt;A sports manager of an ice hockey team&lt;/font&gt;&lt;/div&gt;" name="Actor Name" description="Description" placeholders="1" id="3fenQZD7WvJW-FzGtks1-4">
          <mxCell style="rounded=1;whiteSpace=wrap;html=1;strokeColor=#00315C;fillColor=#004179;fontColor=#000000;arcSize=31;" parent="3fenQZD7WvJW-FzGtks1-3" vertex="1">
            <mxGeometry y="70" width="160" height="100" as="geometry" />
          </mxCell>
        </object>
        <mxCell id="3fenQZD7WvJW-FzGtks1-5" value="" style="ellipse;whiteSpace=wrap;html=1;aspect=fixed;strokeColor=#00315C;fillColor=#004179;fontColor=#000000;" parent="3fenQZD7WvJW-FzGtks1-3" vertex="1">
          <mxGeometry x="40" width="80" height="80" as="geometry" />
        </mxCell>
        <object label="" placeholders="1" instruction="edit data of the lower shape within the group" id="3fenQZD7WvJW-FzGtks1-6">
          <mxCell style="group;resizable=0;" parent="e1K1VD6MmtJ3X1J_XKfh-1" vertex="1" connectable="0">
            <mxGeometry x="264" y="50" width="160" height="170" as="geometry" />
          </mxCell>
        </object>
        <object label="&lt;div style=&quot;color: rgb(255 , 255 , 255) ; white-space: normal&quot;&gt;&lt;span style=&quot;font-size: 14px&quot;&gt;&lt;b&gt;Athlete&lt;/b&gt;&lt;/span&gt;&lt;/div&gt;&lt;div style=&quot;color: rgb(255 , 255 , 255) ; white-space: normal&quot;&gt;&lt;span style=&quot;font-size: 8px&quot;&gt;[Person]&lt;/span&gt;&lt;br&gt;&lt;/div&gt;&lt;div style=&quot;color: rgb(255 , 255 , 255) ; white-space: normal ; font-size: 8px&quot;&gt;&lt;span style=&quot;font-size: x-small&quot;&gt;&lt;br&gt;&lt;/span&gt;&lt;/div&gt;&lt;div style=&quot;color: rgb(255 , 255 , 255) ; white-space: normal&quot;&gt;&lt;font size=&quot;1&quot;&gt;A hockey player&lt;/font&gt;&lt;/div&gt;" name="Actor Name" description="Description" placeholders="1" id="3fenQZD7WvJW-FzGtks1-7">
          <mxCell style="rounded=1;whiteSpace=wrap;html=1;strokeColor=#00315C;fillColor=#004179;fontColor=#000000;arcSize=31;" parent="3fenQZD7WvJW-FzGtks1-6" vertex="1">
            <mxGeometry y="70" width="160" height="100" as="geometry" />
          </mxCell>
        </object>
        <mxCell id="3fenQZD7WvJW-FzGtks1-8" value="" style="ellipse;whiteSpace=wrap;html=1;aspect=fixed;strokeColor=#00315C;fillColor=#004179;fontColor=#000000;" parent="3fenQZD7WvJW-FzGtks1-6" vertex="1">
          <mxGeometry x="40" width="80" height="80" as="geometry" />
        </mxCell>
        <object label="&lt;div&gt;&lt;span style=&quot;font-size: 14px&quot;&gt;&lt;b&gt;Sticks&#39;n&#39;pucks&lt;/b&gt;&lt;/span&gt;&lt;/div&gt;&lt;div&gt;&lt;span style=&quot;font-size: 8px&quot;&gt;[Software System]&lt;/span&gt;&lt;br&gt;&lt;/div&gt;&lt;div&gt;&lt;span style=&quot;font-size: 8px&quot;&gt;&lt;br&gt;&lt;/span&gt;&lt;/div&gt;&lt;div&gt;&lt;font size=&quot;1&quot;&gt;Allows user to manage all parts of hockey teams - create teams, players, be informed about game/team/player statistics&lt;/font&gt;&lt;/div&gt;" placeholders="1" name="Software System Name" description="Description" id="UrCyRtBjpqI_1yXkmizs-0">
          <mxCell style="rounded=0;whiteSpace=wrap;html=1;fillColor=#0067BA;fontColor=#FFFFFF;strokeColor=#005DA8;resizable=0;" parent="e1K1VD6MmtJ3X1J_XKfh-1" vertex="1">
            <mxGeometry x="254" y="360" width="180" height="120" as="geometry" />
          </mxCell>
        </object>
        <object label="&lt;div&gt;&lt;span style=&quot;font-size: 14px&quot;&gt;&lt;b&gt;API&lt;/b&gt;&lt;/span&gt;&lt;/div&gt;&lt;div&gt;&lt;span style=&quot;font-size: 8px&quot;&gt;[Software System&lt;/span&gt;&lt;span style=&quot;font-size: 8px&quot;&gt;]&lt;/span&gt;&lt;br&gt;&lt;/div&gt;&lt;div&gt;&lt;span style=&quot;font-size: 8px&quot;&gt;&lt;br&gt;&lt;/span&gt;&lt;/div&gt;&lt;div&gt;&lt;font size=&quot;1&quot;&gt;A REST API, handling the data of the system&lt;/font&gt;&lt;/div&gt;" placeholders="1" name="External System Name" description="Description of Software System" id="k0FrMJODBg8dhJqT067c-0">
          <mxCell style="rounded=0;whiteSpace=wrap;html=1;fillColor=#999999;fontColor=#FFFFFF;strokeColor=#828282;resizable=0;" parent="e1K1VD6MmtJ3X1J_XKfh-1" vertex="1">
            <mxGeometry x="254" y="540" width="180" height="120" as="geometry" />
          </mxCell>
        </object>
        <object label="System Context Diagram for a hockey system&lt;br&gt;&lt;span style=&quot;font-size: x-small ; font-weight: 400&quot;&gt;%description%&lt;/span&gt;" placeholders="1" name="Diagram Name" description="Description" id="IZ-miQ6S5iQCcmmAPqw1-0">
          <mxCell style="text;html=1;resizable=0;points=[];autosize=1;align=left;verticalAlign=top;spacingTop=-4;fontSize=14;fontColor=#404040;fontStyle=1" parent="e1K1VD6MmtJ3X1J_XKfh-1" vertex="1">
            <mxGeometry x="70" y="680" width="320" height="40" as="geometry" />
          </mxCell>
        </object>
        <object label="&lt;span style=&quot;font-size: 10px&quot;&gt;&lt;b&gt;Can view information about teams, &lt;br&gt;players and games&lt;/b&gt;&lt;br&gt;&lt;/span&gt;" placeholders="1" name="Data Flow Item Name" technology="HTTP" id="aTekrWnxq34PiuTru35F-0">
          <mxCell style="endArrow=block;html=1;fontSize=10;fontColor=#404040;strokeWidth=1;endFill=1;strokeColor=#828282;elbow=vertical;exitX=0.5;exitY=1;exitDx=0;exitDy=0;entryX=1;entryY=0;entryDx=0;entryDy=0;" parent="e1K1VD6MmtJ3X1J_XKfh-1" source="3fenQZD7WvJW-FzGtks1-1" target="UrCyRtBjpqI_1yXkmizs-0" edge="1">
            <mxGeometry width="50" height="50" relative="1" as="geometry">
              <mxPoint x="460" y="280" as="sourcePoint" />
              <mxPoint x="660" y="280" as="targetPoint" />
            </mxGeometry>
          </mxCell>
        </object>
        <object label="&lt;b&gt;Gets information about accounts, teams, games&lt;/b&gt;&lt;span style=&quot;font-size: 10px&quot;&gt;&lt;br&gt;&lt;/span&gt;" placeholders="1" name="Data Flow Item Name" technology="HTTP" id="aTekrWnxq34PiuTru35F-1">
          <mxCell style="endArrow=block;html=1;fontSize=10;fontColor=#404040;strokeWidth=1;endFill=1;strokeColor=#828282;elbow=vertical;entryX=0.5;entryY=0;entryDx=0;entryDy=0;exitX=0.5;exitY=1;exitDx=0;exitDy=0;" parent="e1K1VD6MmtJ3X1J_XKfh-1" source="UrCyRtBjpqI_1yXkmizs-0" target="k0FrMJODBg8dhJqT067c-0" edge="1">
            <mxGeometry width="50" height="50" relative="1" as="geometry">
              <mxPoint x="520" y="490" as="sourcePoint" />
              <mxPoint x="443.9999999999998" y="370" as="targetPoint" />
            </mxGeometry>
          </mxCell>
        </object>
        <object label="&lt;span style=&quot;font-size: 10px&quot;&gt;&lt;b&gt;Can create a profile,&lt;br&gt;add new team,&lt;br&gt;manages users&lt;/b&gt;&lt;br&gt;&lt;/span&gt;" placeholders="1" name="Data Flow Item Name" technology="HTTP" id="aTekrWnxq34PiuTru35F-2">
          <mxCell style="endArrow=block;html=1;fontSize=10;fontColor=#404040;strokeWidth=1;endFill=1;strokeColor=#828282;elbow=vertical;exitX=0.5;exitY=1;exitDx=0;exitDy=0;entryX=0;entryY=0;entryDx=0;entryDy=0;" parent="e1K1VD6MmtJ3X1J_XKfh-1" source="3fenQZD7WvJW-FzGtks1-4" target="UrCyRtBjpqI_1yXkmizs-0" edge="1">
            <mxGeometry width="50" height="50" relative="1" as="geometry">
              <mxPoint x="580" y="220" as="sourcePoint" />
              <mxPoint x="443.9999999999998" y="370" as="targetPoint" />
            </mxGeometry>
          </mxCell>
        </object>
        <object label="&lt;b&gt;Can create a profile,&lt;br&gt;be added to a team,&lt;/b&gt;&lt;span style=&quot;font-size: 10px&quot;&gt;&lt;br&gt;&lt;/span&gt;" placeholders="1" name="Data Flow Item Name" technology="HTTP" id="aTekrWnxq34PiuTru35F-3">
          <mxCell style="endArrow=block;html=1;fontSize=10;fontColor=#404040;strokeWidth=1;endFill=1;strokeColor=#828282;elbow=vertical;exitX=0.5;exitY=1;exitDx=0;exitDy=0;entryX=0.5;entryY=0;entryDx=0;entryDy=0;" parent="e1K1VD6MmtJ3X1J_XKfh-1" source="3fenQZD7WvJW-FzGtks1-7" target="UrCyRtBjpqI_1yXkmizs-0" edge="1">
            <mxGeometry width="50" height="50" relative="1" as="geometry">
              <mxPoint x="150" y="230" as="sourcePoint" />
              <mxPoint x="264" y="370" as="targetPoint" />
              <Array as="points" />
            </mxGeometry>
          </mxCell>
        </object>
      </root>
    </mxGraphModel>
  </diagram>
</mxfile>
